<?xml version="1.0" encoding="UTF-8"?>
<svg id="Layer_1" data-name="Layer 1" xmlns="http://www.w3.org/2000/svg" viewBox="0 0 88.77 35.51">
  <defs>
    <style>
      .cls-1 {
        fill: none;
        stroke: #000;
        stroke-miterlimit: 10;
      }

      .cls-2 {
        fill: #4d4d4d;
      }
    </style>
  </defs>
  <g>
    <path d="M3.23,10.28c-.47,0-.93-.04-1.38-.12s-.84-.19-1.2-.34l.21-1.58c.43.18.86.32,1.28.42s.82.15,1.17.15c.42,0,.74-.07.96-.22s.33-.36.33-.64c0-.36-.23-.65-.69-.87l-1.2-.58c-.59-.29-1.05-.65-1.37-1.07s-.49-.9-.49-1.41c0-.73.24-1.29.72-1.69s1.16-.6,2.04-.6c.51,0,1,.09,1.46.27s.87.44,1.22.78l-1.07,1.22c-.27-.26-.54-.46-.81-.59s-.54-.21-.79-.21c-.34,0-.61.07-.8.22s-.29.36-.29.64c0,.18.07.36.2.52s.33.31.58.45l1.12.58c.59.3,1.04.66,1.36,1.07s.48.84.48,1.31c0,.74-.27,1.31-.8,1.71s-1.29.6-2.27.6Z"/>
    <path d="M.88,13.23v-1.39h5.26v1.39H.88ZM.88,20.16v-1.39h5.26v1.39H.88ZM2.74,20.16v-8.32h1.55v8.32h-1.55Z"/>
    <path d="M4.11,30.28c-1.27,0-2.23-.36-2.87-1.07s-.96-1.79-.96-3.22c0-1.36.33-2.41.99-3.15s1.59-1.12,2.79-1.12c.61,0,1.13.09,1.57.28s.78.46,1.03.81l-.97,1.12c-.18-.23-.41-.41-.68-.54s-.56-.2-.88-.2c-.7,0-1.25.24-1.64.71s-.58,1.15-.58,2.02c0,.96.2,1.67.59,2.15s.97.72,1.75.72c.37,0,.7-.04.98-.11s.51-.13.69-.18l.56,1.42c-.17.05-.47.12-.9.21s-.92.14-1.47.14ZM3.57,27.28v-1.42h2.88v1.42h-2.88ZM4.95,29.93v-4.07h1.54v4.07h-1.54Z"/>
  </g>
  <g>
    <path d="M12.14,10.29V1.97h1.55v8.32h-1.55ZM13.61,7.24v-1.42h1.49c.36,0,.64-.11.84-.32s.3-.51.3-.89-.1-.69-.3-.9-.48-.32-.84-.32h-1.47l-.14-1.42h1.61c.89,0,1.59.22,2.07.66s.73,1.06.73,1.86c0,.87-.24,1.55-.73,2.03s-1.18.72-2.07.72h-1.49ZM16.37,10.29l-1.57-3.91h1.63l1.79,3.91h-1.85Z"/>
    <path class="cls-2" d="M22.57,10.4c-1.06,0-1.88-.28-2.45-.83s-.86-1.36-.86-2.4.24-1.8.73-2.37,1.18-.84,2.07-.84c.84,0,1.49.25,1.95.76s.69,1.25.69,2.21c0,.29-.01.55-.04.8h-4.36v-.95h3.27c0-.56-.13-.99-.4-1.29s-.63-.45-1.1-.45c-.53,0-.94.18-1.23.54s-.44.87-.44,1.52c0,.72.2,1.27.6,1.64s.97.56,1.71.56c.26,0,.51-.01.76-.04s.5-.07.76-.12l.15,1.09c-.37.07-.7.12-1.01.13s-.57.03-.81.03Z"/>
    <path class="cls-2" d="M28.09,10.4c-.65,0-1.15-.16-1.51-.47s-.53-.75-.53-1.32c0-.66.25-1.16.74-1.51s1.18-.53,2.08-.53c.37,0,.7.02.99.07s.55.11.78.2l-.26.84c-.26-.06-.52-.09-.77-.1s-.51-.01-.77-.01c-1.08,0-1.62.33-1.62.98,0,.27.09.48.28.63s.45.22.79.22c.39,0,.71-.07.97-.2s.45-.3.58-.51.19-.42.19-.64v-.68l.36,1.59h-.49l.2-.19c0,.36-.08.66-.25.9s-.4.42-.7.54-.66.18-1.07.18ZM30.28,10.35l-.08-1.84-.16-.52v-1.61c0-.41-.15-.72-.44-.91s-.72-.3-1.3-.31l-1.49-.04.12-1.1,1.25.02c1.03.02,1.79.24,2.29.67s.75,1.05.75,1.87v2.59l1.05.13v1l-1.99.06Z"/>
    <path class="cls-2" d="M35.55,10.4c-.47,0-.87-.01-1.2-.04s-.64-.07-.92-.13l.14-1.12c.41.06.77.11,1.09.14s.61.05.89.05c.63,0,1.08-.06,1.37-.18s.42-.32.42-.59c0-.19-.05-.33-.15-.42s-.25-.16-.46-.21l-1.43-.36c-.61-.16-1.06-.35-1.35-.58s-.43-.58-.43-1.05c0-.68.26-1.17.78-1.48s1.36-.46,2.52-.46c.3,0,.58,0,.84.03s.53.05.8.09l-.13,1.08c-.32-.03-.6-.05-.84-.06s-.48-.02-.71-.02c-.7,0-1.2.06-1.51.18s-.47.31-.47.58c0,.18.06.31.19.39s.33.15.59.22l1.15.28c.65.16,1.13.37,1.43.63s.45.64.45,1.14c0,.67-.24,1.15-.73,1.46s-1.27.45-2.35.45Z"/>
    <path class="cls-2" d="M43.06,10.4c-.86,0-1.53-.28-2-.84s-.71-1.36-.71-2.38.24-1.82.71-2.38,1.14-.84,2-.84,1.53.28,2.01.84.71,1.35.71,2.38-.24,1.82-.71,2.38-1.14.84-2.01.84ZM43.06,9.29c.46,0,.81-.18,1.06-.55s.37-.89.37-1.56-.12-1.2-.37-1.56-.6-.55-1.06-.55-.81.18-1.06.55-.37.89-.37,1.56.12,1.19.37,1.56.6.55,1.06.55Z"/>
    <path class="cls-2" d="M47.56,10.29v-6.21h1.12l.12,1.31v4.9h-1.24ZM51.38,10.29v-4.04c0-.38-.1-.66-.29-.87s-.47-.3-.82-.3c-.98,0-1.46.57-1.46,1.72l-.36-1.59h.48c.04-.42.19-.73.46-.93s.66-.31,1.18-.31c.66,0,1.16.2,1.52.6s.54.96.54,1.69v4.04h-1.24Z"/>
    <path class="cls-2" d="M56.21,10.4c-.65,0-1.15-.16-1.51-.47s-.53-.75-.53-1.32c0-.66.25-1.16.74-1.51s1.18-.53,2.08-.53c.37,0,.7.02.99.07s.55.11.78.2l-.26.84c-.26-.06-.52-.09-.77-.1s-.51-.01-.77-.01c-1.08,0-1.62.33-1.62.98,0,.27.09.48.28.63s.45.22.79.22c.39,0,.71-.07.97-.2s.45-.3.58-.51.19-.42.19-.64v-.68l.36,1.59h-.49l.2-.19c0,.36-.08.66-.25.9s-.4.42-.7.54-.66.18-1.07.18ZM58.4,10.35l-.08-1.84-.16-.52v-1.61c0-.41-.15-.72-.44-.91s-.72-.3-1.3-.31l-1.49-.04.12-1.1,1.25.02c1.03.02,1.79.24,2.29.67s.75,1.05.75,1.87v2.59l1.05.13v1l-1.99.06Z"/>
    <path class="cls-2" d="M61.6,10.29V1.5h1.24v8.68l-1.24.11ZM63.26,10.4c-.28,0-.56-.01-.83-.03s-.55-.05-.83-.08l.48-1.14c.21.1.44.16.69.17s.5.03.74.03c.75,0,1.32-.22,1.73-.67s.61-1.08.61-1.9c0-.56-.12-1-.37-1.3s-.6-.46-1.06-.46c-1.05,0-1.58.59-1.58,1.78l-.36-1.59h.48c.06-.83.57-1.24,1.52-1.24.83,0,1.47.24,1.92.73s.68,1.18.68,2.08c0,1.15-.33,2.05-1,2.68s-1.61.95-2.82.95Z"/>
    <path class="cls-2" d="M68.25,2.52v-1.02h1.93v1.02h-1.93ZM72.11,10.4c-.72,0-1.24-.2-1.56-.59s-.48-1.02-.48-1.88V1.5h1.24v6.39c0,.33.03.6.09.8s.18.36.37.46.45.15.81.15c.32,0,.74-.07,1.24-.22l.14,1.09c-.32.09-.62.15-.91.19s-.6.06-.94.06Z"/>
    <path class="cls-2" d="M78.82,10.4c-1.06,0-1.88-.28-2.45-.83s-.86-1.36-.86-2.4.24-1.8.73-2.37,1.18-.84,2.07-.84c.84,0,1.49.25,1.95.76s.69,1.25.69,2.21c0,.29-.01.55-.04.8h-4.36v-.95h3.27c0-.56-.13-.99-.4-1.29s-.63-.45-1.1-.45c-.53,0-.94.18-1.23.54s-.44.87-.44,1.52c0,.72.2,1.27.6,1.64s.97.56,1.71.56c.26,0,.51-.01.76-.04s.5-.07.76-.12l.15,1.09c-.37.07-.7.12-1.01.13s-.57.03-.81.03Z"/>
    <path d="M12.26,20.29v-8.32h1.55v8.32h-1.55ZM13.67,17.9v-1.42h1.14c.51,0,.91-.14,1.19-.42s.42-.67.42-1.18c0-.48-.14-.84-.42-1.1s-.67-.39-1.19-.39h-1.12v-1.42h1.12c1.04,0,1.85.25,2.42.74s.86,1.18.86,2.08c0,.99-.29,1.76-.86,2.31s-1.38.82-2.42.82h-1.14Z"/>
    <path class="cls-2" d="M22.57,20.4c-1.06,0-1.88-.28-2.45-.83s-.86-1.36-.86-2.4.24-1.8.73-2.37,1.18-.84,2.07-.84c.84,0,1.49.25,1.95.76s.69,1.25.69,2.21c0,.29-.01.55-.04.8h-4.36v-.95h3.27c0-.56-.13-.99-.4-1.29s-.63-.45-1.1-.45c-.53,0-.94.18-1.23.54s-.44.87-.44,1.52c0,.72.2,1.27.6,1.64s.97.56,1.71.56c.26,0,.51-.01.76-.04s.5-.07.76-.12l.15,1.09c-.37.07-.7.12-1.01.13s-.57.03-.81.03Z"/>
    <path class="cls-2" d="M25.95,20.29v-1.02h4.15v1.02h-4.15ZM26.19,15.1v-1.02h2.07l.12,1.02h-2.19ZM27.34,20.29v-6.21h1.01l.23,1.78v4.43h-1.24ZM28.58,17.62l-.36-1.95h.48c.07-1.14.64-1.71,1.71-1.71.64,0,1.11.18,1.39.55s.43.96.43,1.78h-1.23c0-.45-.07-.78-.2-.98s-.35-.3-.65-.3c-.53,0-.92.23-1.18.68s-.39,1.09-.39,1.92Z"/>
    <path class="cls-2" d="M32.92,16.5v-1.02h5.74v1.02h-5.74ZM34.87,20.29v-5.68c0-2.15.98-3.22,2.94-3.22.45,0,.88.04,1.29.12l-.13,1.08c-.25-.03-.46-.05-.65-.06s-.37-.02-.54-.02c-1.11,0-1.66.68-1.66,2.05v5.74h-1.24Z"/>
    <path class="cls-2" d="M43.06,20.4c-.86,0-1.53-.28-2-.84s-.71-1.36-.71-2.38.24-1.82.71-2.38,1.14-.84,2-.84,1.53.28,2.01.84.71,1.35.71,2.38-.24,1.82-.71,2.38-1.14.84-2.01.84ZM43.06,19.29c.46,0,.81-.18,1.06-.55s.37-.89.37-1.56-.12-1.2-.37-1.56-.6-.55-1.06-.55-.81.18-1.06.55-.37.89-.37,1.56.12,1.19.37,1.56.6.55,1.06.55Z"/>
    <path class="cls-2" d="M47.05,20.29v-1.02h4.15v1.02h-4.15ZM47.28,15.1v-1.02h2.07l.12,1.02h-2.19ZM48.43,20.29v-6.21h1.01l.23,1.78v4.43h-1.24ZM49.67,17.62l-.36-1.95h.48c.07-1.14.64-1.71,1.71-1.71.64,0,1.11.18,1.39.55s.43.96.43,1.78h-1.23c0-.45-.07-.78-.2-.98s-.35-.3-.65-.3c-.53,0-.92.23-1.18.68s-.39,1.09-.39,1.92Z"/>
    <path class="cls-2" d="M54.27,20.29v-6.21h1.1l.14,1.31v4.9h-1.24ZM56.6,20.29v-4.86c0-.35-.16-.53-.49-.53-.4,0-.6.28-.6.84l-.36-.89h.4c.05-.59.4-.89,1.07-.89.32,0,.58.11.76.33s.28.56.28,1.01v4.98h-1.05ZM58.74,20.29v-4.75c0-.43-.16-.64-.48-.64-.41,0-.61.28-.61.84l-.42-.89h.48c.02-.24.12-.45.29-.63s.42-.26.75-.26c.43,0,.74.12.94.35s.29.6.29,1.12v4.86h-1.24Z"/>
    <path class="cls-2" d="M63.24,20.4c-.65,0-1.15-.16-1.51-.47s-.53-.75-.53-1.32c0-.66.25-1.16.74-1.51s1.18-.53,2.08-.53c.37,0,.7.02.99.07s.55.11.78.2l-.26.84c-.26-.06-.52-.09-.77-.1s-.51-.01-.77-.01c-1.08,0-1.62.33-1.62.98,0,.27.09.48.28.63s.45.22.79.22c.39,0,.71-.07.97-.2s.45-.3.58-.51.19-.42.19-.64v-.68l.36,1.59h-.49l.2-.19c0,.36-.08.66-.25.9s-.4.42-.7.54-.66.18-1.07.18ZM65.44,20.35l-.08-1.84-.16-.52v-1.61c0-.41-.15-.72-.44-.91s-.72-.3-1.3-.31l-1.49-.04.12-1.1,1.25.02c1.03.02,1.79.24,2.29.67s.75,1.05.75,1.87v2.59l1.05.13v1l-1.99.06Z"/>
    <path class="cls-2" d="M68.66,20.29v-6.21h1.12l.12,1.31v4.9h-1.24ZM72.48,20.29v-4.04c0-.38-.1-.66-.29-.87s-.47-.3-.82-.3c-.98,0-1.46.57-1.46,1.72l-.36-1.59h.48c.04-.42.19-.73.46-.93s.66-.31,1.18-.31c.66,0,1.16.2,1.52.6s.54.96.54,1.69v4.04h-1.24Z"/>
    <path class="cls-2" d="M78.82,20.4c-1.06,0-1.88-.28-2.45-.83s-.86-1.36-.86-2.4.27-1.8.82-2.37,1.32-.84,2.33-.84c.61,0,1.12.11,1.56.34s.74.54.92.95l-.96.72c-.18-.29-.4-.51-.67-.66s-.57-.23-.9-.23c-.59,0-1.04.18-1.37.53s-.49.86-.49,1.51c0,.71.19,1.25.57,1.62s.92.56,1.63.56c.29,0,.58-.01.87-.04s.57-.06.84-.11l.14,1.09c-.32.07-.65.12-.99.14s-.67.04-1,.04Z"/>
    <path class="cls-2" d="M85.85,20.4c-1.06,0-1.88-.28-2.45-.83s-.86-1.36-.86-2.4.24-1.8.73-2.37,1.18-.84,2.07-.84c.84,0,1.49.25,1.95.76s.69,1.25.69,2.21c0,.29-.01.55-.04.8h-4.36v-.95h3.27c0-.56-.13-.99-.4-1.29s-.63-.45-1.1-.45c-.53,0-.94.18-1.23.54s-.44.87-.44,1.52c0,.72.2,1.27.6,1.64s.97.56,1.71.56c.26,0,.51-.01.76-.04s.5-.07.76-.12l.15,1.09c-.37.07-.7.12-1.01.13s-.57.03-.81.03Z"/>
    <path d="M15.81,30.4c-2.65,0-3.98-1.43-3.98-4.29,0-1.36.33-2.41,1-3.15s1.61-1.12,2.84-1.12c.55,0,1.04.09,1.46.27s.75.43.97.76l-.87,1.13c-.18-.22-.4-.39-.67-.51s-.57-.18-.88-.18c-.67,0-1.21.24-1.61.71s-.61,1.15-.61,2.02c0,1.91.85,2.87,2.55,2.87.57,0,1.12-.12,1.68-.35l.27,1.43c-.68.27-1.39.4-2.14.4Z"/>
    <path class="cls-2" d="M21.97,30.4c-.86,0-1.53-.28-2-.84s-.71-1.36-.71-2.38.24-1.82.71-2.38,1.14-.84,2-.84,1.53.28,2.01.84.71,1.35.71,2.38-.24,1.82-.71,2.38-1.14.84-2.01.84ZM21.97,29.29c.46,0,.81-.18,1.06-.55s.37-.89.37-1.56-.12-1.2-.37-1.56-.6-.55-1.06-.55-.81.18-1.06.55-.37.89-.37,1.56.12,1.19.37,1.56.6.55,1.06.55Z"/>
    <path class="cls-2" d="M26.14,30.29v-6.21h1.1l.14,1.31v4.9h-1.24ZM28.47,30.29v-4.86c0-.35-.16-.53-.49-.53-.4,0-.6.28-.6.84l-.36-.89h.4c.05-.59.4-.89,1.07-.89.32,0,.58.11.76.33s.28.56.28,1.01v4.98h-1.05ZM30.62,30.29v-4.75c0-.43-.16-.64-.48-.64-.41,0-.61.28-.61.84l-.42-.89h.48c.02-.24.12-.45.29-.63s.42-.26.75-.26c.43,0,.74.12.94.35s.29.6.29,1.12v4.86h-1.24Z"/>
    <path class="cls-2" d="M33.5,32.98v-8.91h1.12l.12,1.31v7.59h-1.24ZM36.51,30.4c-.48,0-.86-.11-1.15-.33s-.46-.52-.5-.91h-.54l.42-1.77c0,.64.13,1.13.38,1.46s.62.5,1.11.5.88-.18,1.14-.53.39-.88.39-1.58c0-.73-.13-1.29-.39-1.66s-.64-.56-1.14-.56-.86.17-1.11.5-.38.82-.38,1.46l-.42-1.77h.48c.05-.39.23-.7.53-.91s.69-.33,1.17-.33c.82,0,1.43.28,1.85.83s.63,1.37.63,2.45-.21,1.83-.63,2.36-1.04.8-1.85.8Z"/>
    <path class="cls-2" d="M42.45,30.4c-.65,0-1.16-.19-1.51-.58s-.54-.94-.54-1.64v-4.1h1.24v4.1c0,.36.1.63.3.82s.49.29.86.29c.45,0,.79-.14,1.03-.43s.35-.77.35-1.44l.32,1.68h-.41c-.1.42-.29.75-.57.97s-.64.34-1.05.34ZM44.18,28.53v-4.45h1.24v4.1l-1.24.35ZM44.28,30.35l-.11-1.49v-1.09h1.24v1.39l.86.13v1l-1.99.06Z"/>
    <path class="cls-2" d="M46.99,25.1v-1.02h5.62v1.02h-5.62ZM48.55,27.36v-5.16h1.24v5.16h-1.24ZM51.22,30.4c-.94,0-1.62-.2-2.04-.59s-.63-1.02-.63-1.88v-1.05h1.24v1c0,.49.12.85.36,1.07s.64.33,1.19.33c.2,0,.4-.01.62-.03s.47-.05.75-.08l.14,1.09c-.27.05-.54.08-.8.11s-.54.04-.83.04Z"/>
    <path class="cls-2" d="M54.55,30.29v-1.02h2.48v1.02h-2.48ZM54.9,25.1v-1.02h3.26v1.02h-3.26ZM57.5,23.09c-.24,0-.44-.08-.61-.25s-.25-.37-.25-.61.08-.45.25-.62.37-.25.61-.25.45.08.62.25.25.37.25.62-.08.44-.25.61-.37.25-.62.25ZM56.92,30.29v-5.86h1.24v5.86h-1.24ZM58.04,30.29v-1.02h2.03v1.02h-2.03Z"/>
    <path class="cls-2" d="M61.63,30.29v-6.21h1.12l.12,1.31v4.9h-1.24ZM65.45,30.29v-4.04c0-.38-.1-.66-.29-.87s-.47-.3-.82-.3c-.98,0-1.46.57-1.46,1.72l-.36-1.59h.48c.04-.42.19-.73.46-.93s.66-.31,1.18-.31c.66,0,1.16.2,1.52.6s.54.96.54,1.69v4.04h-1.24Z"/>
    <path class="cls-2" d="M70.71,30.4c-.81,0-1.43-.27-1.85-.8s-.63-1.32-.63-2.36.21-1.89.63-2.45,1.04-.83,1.85-.83c.48,0,.88.11,1.18.33s.48.52.53.91h.48l-.42,1.77c0-.64-.13-1.13-.38-1.46s-.62-.5-1.11-.5-.88.19-1.14.56-.39.93-.39,1.66c0,.7.13,1.22.39,1.58s.64.53,1.14.53.86-.17,1.11-.5.38-.82.38-1.46l.42,1.77h-.54c-.04.39-.2.7-.5.91s-.67.33-1.15.33ZM68.74,33.09l-.06-1.14,1.99-.06c.63-.02,1.09-.19,1.37-.52s.43-.81.43-1.45v-4.54l.12-1.31h1.12v5.66c0,1.11-.25,1.92-.76,2.45s-1.31.81-2.41.84l-1.82.06Z"/>
  </g>
  <line class="cls-1" x1="9.35" y1="2.33" x2="9.35" y2="29.33"/>
</svg>