<?xml version="1.0" encoding="UTF-8"?>
<svg id="Layer_1" data-name="Layer 1" xmlns="http://www.w3.org/2000/svg" viewBox="0 0 32 35.68">
  <defs>
    <style>
      .cls-1 {
        stroke: #000;
        stroke-miterlimit: 10;
      }

      .cls-1, .cls-2 {
        fill: none;
      }
    </style>
  </defs>
  <g>
    <path d="M9.38,10.45c-.47,0-.93-.04-1.38-.12s-.84-.19-1.2-.34l.21-1.58c.43.18.86.32,1.28.42s.82.15,1.17.15c.42,0,.74-.07.96-.22s.33-.36.33-.64c0-.36-.23-.65-.69-.87l-1.2-.58c-.59-.29-1.05-.65-1.37-1.07s-.49-.9-.49-1.41c0-.73.24-1.29.72-1.69s1.16-.6,2.04-.6c.51,0,1,.09,1.46.27s.87.44,1.22.78l-1.07,1.22c-.27-.26-.54-.46-.81-.59s-.54-.21-.79-.21c-.34,0-.61.07-.8.22s-.29.36-.29.64c0,.18.07.36.2.52s.33.31.58.45l1.12.58c.59.3,1.04.66,1.36,1.07s.48.84.48,1.31c0,.74-.27,1.31-.8,1.71s-1.29.6-2.27.6Z"/>
    <path d="M7.04,13.4v-1.39h5.26v1.39h-5.26ZM7.04,20.33v-1.39h5.26v1.39h-5.26ZM8.89,20.33v-8.32h1.55v8.32h-1.55Z"/>
    <path d="M10.26,30.45c-1.27,0-2.23-.36-2.87-1.07s-.96-1.79-.96-3.22c0-1.36.33-2.41.99-3.15s1.59-1.12,2.79-1.12c.61,0,1.13.09,1.57.28s.78.46,1.03.81l-.97,1.12c-.18-.23-.41-.41-.68-.54s-.56-.2-.88-.2c-.7,0-1.25.24-1.64.71s-.58,1.15-.58,2.02c0,.96.2,1.67.59,2.15s.97.72,1.75.72c.37,0,.7-.04.98-.11s.51-.13.69-.18l.56,1.42c-.17.05-.47.12-.9.21s-.92.14-1.47.14ZM9.73,27.45v-1.42h2.88v1.42h-2.88ZM11.1,30.1v-4.07h1.54v4.07h-1.54Z"/>
  </g>
  <g>
    <path d="M18.29,10.46V2.14h1.55v8.32h-1.55ZM19.76,7.41v-1.42h1.49c.36,0,.64-.11.84-.32s.3-.51.3-.89-.1-.69-.3-.9-.48-.32-.84-.32h-1.47l-.14-1.42h1.61c.89,0,1.59.22,2.07.66s.73,1.06.73,1.86c0,.87-.24,1.55-.73,2.03s-1.18.72-2.07.72h-1.49ZM22.52,10.46l-1.57-3.91h1.63l1.79,3.91h-1.85Z"/>
    <path d="M18.41,20.46v-8.32h1.55v8.32h-1.55ZM19.82,18.08v-1.42h1.14c.51,0,.91-.14,1.19-.42s.42-.67.42-1.18c0-.48-.14-.84-.42-1.1s-.67-.39-1.19-.39h-1.12v-1.42h1.12c1.04,0,1.85.25,2.42.74s.86,1.18.86,2.08c0,.99-.29,1.76-.86,2.31s-1.38.82-2.42.82h-1.14Z"/>
    <path d="M21.96,30.58c-2.65,0-3.98-1.43-3.98-4.29,0-1.36.33-2.41,1-3.15s1.61-1.12,2.84-1.12c.55,0,1.04.09,1.46.27s.75.43.97.76l-.87,1.13c-.18-.22-.4-.39-.67-.51s-.57-.18-.88-.18c-.67,0-1.21.24-1.61.71s-.61,1.15-.61,2.02c0,1.91.85,2.87,2.55,2.87.57,0,1.12-.12,1.68-.35l.27,1.43c-.68.27-1.39.4-2.14.4Z"/>
  </g>
  <line class="cls-1" x1="15.5" y1="2.5" x2="15.5" y2="29.5"/>
  <rect class="cls-2" width="32" height="32"/>
</svg>